<svg width="226" height="418" viewBox="0 0 226 418" fill="none" xmlns="http://www.w3.org/2000/svg">
<path d="M87.9019 415.95C88.2179 416.895 89.1751 417.75 90.1413 417.948C92.0014 418.335 93.8616 416.481 93.4733 414.626C93.1844 413.231 91.7576 412.15 90.4122 412.285C89.464 412.384 88.4888 413.096 88.0463 413.996C87.7845 414.545 87.7213 415.391 87.9019 415.95Z" fill="white"/>
<path d="M87.9019 261.347C88.2179 262.292 89.1751 263.147 90.1413 263.346C92.0014 263.733 93.8616 261.878 93.4733 260.023C93.1844 258.628 91.7576 257.548 90.4122 257.683C89.464 257.782 88.4888 258.493 88.0463 259.393C87.7845 259.942 87.7213 260.789 87.9019 261.347Z" fill="white"/>
<path d="M131.801 364.417C132.253 365.776 133.752 366.695 135.07 366.416C136.144 366.191 137.147 365.191 137.372 364.12C137.742 362.382 136.09 360.572 134.311 360.752C133.363 360.851 132.388 361.562 131.946 362.463C131.684 363.012 131.621 363.858 131.801 364.417Z" fill="white"/>
<path d="M131.801 261.348C132.253 262.708 133.752 263.626 135.07 263.347C136.144 263.122 137.147 262.123 137.372 261.051C137.742 259.313 136.09 257.504 134.311 257.684C133.363 257.783 132.388 258.494 131.946 259.394C131.684 259.944 131.621 260.79 131.801 261.348Z" fill="white"/>
<path d="M131.801 209.814C132.253 211.174 133.752 212.092 135.07 211.813C136.144 211.588 137.147 210.588 137.372 209.517C137.742 207.779 136.09 205.969 134.311 206.149C133.363 206.248 132.388 206.96 131.946 207.86C131.684 208.409 131.621 209.256 131.801 209.814Z" fill="white"/>
<path d="M87.9018 158.28C88.3533 159.639 89.8521 160.558 91.1704 160.279C92.2448 160.054 93.247 159.054 93.4728 157.983C93.8429 156.245 92.1906 154.435 90.4119 154.615C89.4639 154.714 88.4887 155.425 88.0463 156.326C87.7845 156.875 87.7213 157.722 87.9018 158.28Z" fill="white"/>
<path d="M44.0023 415.95C44.3184 416.895 45.2755 417.75 46.2417 417.948C48.1019 418.335 49.962 416.481 49.5738 414.626C49.2848 413.231 47.8581 412.15 46.5126 412.285C45.5645 412.384 44.5893 413.096 44.1468 413.996C43.8849 414.545 43.8217 415.391 44.0023 415.95Z" fill="white"/>
<path d="M44.0023 312.881C44.3184 313.826 45.2755 314.682 46.2417 314.88C48.1019 315.267 49.962 313.412 49.5738 311.558C49.2848 310.162 47.8581 309.082 46.5126 309.217C45.5645 309.316 44.5893 310.027 44.1468 310.927C43.8849 311.477 43.8217 312.323 44.0023 312.881Z" fill="white"/>
<path d="M44.0023 209.814C44.4538 211.174 45.9526 212.092 47.2708 211.813C48.3453 211.588 49.3475 210.588 49.5732 209.517C49.9434 207.779 48.2911 205.969 46.5124 206.149C45.5643 206.248 44.5892 206.96 44.1468 207.86C43.8849 208.409 43.8217 209.256 44.0023 209.814Z" fill="white"/>
<path d="M0.102768 415.95C0.418814 416.895 1.37598 417.75 2.34218 417.948C4.20233 418.335 6.06249 416.481 5.6742 414.626C5.38525 413.231 3.95853 412.15 2.61307 412.285C1.66494 412.384 0.68971 413.096 0.247247 413.996C-0.01462 414.545 -0.077829 415.391 0.102768 415.95Z" fill="white"/>
<path d="M0.102768 261.347C0.418814 262.292 1.37598 263.147 2.34218 263.346C4.20233 263.733 6.06249 261.878 5.6742 260.023C5.38525 258.628 3.95853 257.548 2.61307 257.683C1.66494 257.782 0.68971 258.493 0.247247 259.393C-0.01462 259.942 -0.077829 260.789 0.102768 261.347Z" fill="white"/>
<path d="M0.102759 209.814C0.554211 211.174 2.05303 212.092 3.37127 211.813C4.44572 211.588 5.44794 210.588 5.67367 209.517C6.04386 207.779 4.39155 205.969 2.61283 206.149C1.66478 206.248 0.689646 206.96 0.247223 207.86C-0.0146185 208.409 -0.0778218 209.256 0.102759 209.814Z" fill="white"/>
<path d="M175.701 364.417C176.152 365.776 177.651 366.695 178.969 366.416C180.044 366.191 181.046 365.191 181.272 364.12C181.642 362.382 179.99 360.572 178.211 360.752C177.263 360.851 176.288 361.562 175.845 362.463C175.584 363.012 175.52 363.858 175.701 364.417Z" fill="white"/>
<path d="M175.701 261.348C176.152 262.708 177.651 263.626 178.969 263.347C180.044 263.122 181.046 262.123 181.272 261.051C181.642 259.313 179.99 257.504 178.211 257.684C177.263 257.783 176.288 258.494 175.845 259.394C175.584 259.944 175.52 260.79 175.701 261.348Z" fill="white"/>
<path d="M175.701 209.814C176.152 211.174 177.651 212.092 178.969 211.813C180.044 211.588 181.046 210.588 181.272 209.517C181.642 207.779 179.99 205.969 178.211 206.149C177.263 206.248 176.288 206.96 175.845 207.86C175.584 208.409 175.52 209.256 175.701 209.814Z" fill="white"/>
<path d="M219.6 261.347C219.917 262.292 220.874 263.147 221.84 263.346C223.7 263.733 225.56 261.878 225.172 260.023C224.883 258.628 223.456 257.548 222.111 257.683C221.163 257.782 220.187 258.493 219.745 259.393C219.483 259.942 219.42 260.789 219.6 261.347Z" fill="white"/>
<path d="M219.6 415.95C219.917 416.895 220.874 417.75 221.84 417.948C223.7 418.335 225.56 416.481 225.172 414.626C224.883 413.231 223.456 412.15 222.111 412.285C221.163 412.384 220.187 413.096 219.745 413.996C219.483 414.545 219.42 415.391 219.6 415.95Z" fill="white"/>
<path d="M219.6 158.278C219.917 159.224 220.874 160.079 221.84 160.277C223.7 160.664 225.56 158.81 225.172 156.955C224.883 155.559 223.456 154.479 222.111 154.614C221.163 154.713 220.187 155.424 219.745 156.325C219.483 156.874 219.42 157.72 219.6 158.278Z" fill="white"/>
<path d="M87.9019 364.415C88.2179 365.361 89.1751 366.216 90.1413 366.414C92.0014 366.801 93.8616 364.947 93.4733 363.092C93.1844 361.696 91.7576 360.616 90.4122 360.751C89.464 360.85 88.4888 361.561 88.0463 362.462C87.7845 363.011 87.7213 363.857 87.9019 364.415Z" fill="white"/>
<path d="M87.9019 312.881C88.2179 313.826 89.1751 314.682 90.1413 314.88C92.0014 315.267 93.8616 313.412 93.4733 311.558C93.1844 310.162 91.7576 309.082 90.4122 309.217C89.464 309.316 88.4888 310.027 88.0463 310.927C87.7845 311.477 87.7213 312.323 87.9019 312.881Z" fill="white"/>
<path d="M131.801 415.951C132.253 417.311 133.752 418.229 135.07 417.95C136.144 417.725 137.147 416.725 137.372 415.654C137.742 413.916 136.09 412.106 134.311 412.286C133.363 412.385 132.388 413.097 131.946 413.997C131.684 414.546 131.621 415.393 131.801 415.951Z" fill="white"/>
<path d="M131.801 312.883C132.253 314.242 133.752 315.161 135.07 314.881C136.144 314.656 137.147 313.657 137.372 312.585C137.742 310.848 136.09 309.038 134.311 309.218C133.363 309.317 132.388 310.028 131.946 310.929C131.684 311.478 131.621 312.324 131.801 312.883Z" fill="white"/>
<path d="M131.801 158.28C132.253 159.639 133.752 160.558 135.07 160.279C136.144 160.054 137.147 159.054 137.372 157.983C137.742 156.245 136.09 154.435 134.311 154.615C133.363 154.714 132.388 155.425 131.946 156.326C131.684 156.875 131.621 157.722 131.801 158.28Z" fill="white"/>
<path d="M87.9018 209.814C88.3533 211.174 89.8521 212.092 91.1704 211.813C92.2448 211.588 93.247 210.588 93.4728 209.517C93.8429 207.779 92.1906 205.969 90.4119 206.149C89.4639 206.248 88.4887 206.96 88.0463 207.86C87.7845 208.409 87.7213 209.256 87.9018 209.814Z" fill="white"/>
<path d="M44.0023 364.415C44.3184 365.361 45.2755 366.216 46.2417 366.414C48.1019 366.801 49.962 364.947 49.5738 363.092C49.2848 361.696 47.8581 360.616 46.5126 360.751C45.5645 360.85 44.5893 361.561 44.1468 362.462C43.8849 363.011 43.8217 363.857 44.0023 364.415Z" fill="white"/>
<path d="M44.0023 261.347C44.3184 262.292 45.2755 263.147 46.2417 263.346C48.1019 263.733 49.962 261.878 49.5738 260.023C49.2848 258.628 47.8581 257.548 46.5126 257.683C45.5645 257.782 44.5893 258.493 44.1468 259.393C43.8849 259.942 43.8217 260.789 44.0023 261.347Z" fill="white"/>
<path d="M44.0023 158.28C44.4538 159.639 45.9526 160.558 47.2708 160.279C48.3453 160.054 49.3475 159.054 49.5732 157.983C49.9434 156.245 48.2911 154.435 46.5124 154.615C45.5643 154.714 44.5892 155.425 44.1468 156.326C43.8849 156.875 43.8217 157.722 44.0023 158.28Z" fill="white"/>
<path d="M0.102768 364.415C0.418814 365.361 1.37598 366.216 2.34218 366.414C4.20233 366.801 6.06249 364.947 5.6742 363.092C5.38525 361.696 3.95853 360.616 2.61307 360.751C1.66494 360.85 0.68971 361.561 0.247247 362.462C-0.01462 363.011 -0.077829 363.857 0.102768 364.415Z" fill="white"/>
<path d="M0.102768 312.881C0.418814 313.826 1.37598 314.682 2.34218 314.88C4.20233 315.267 6.06249 313.412 5.6742 311.558C5.38525 310.162 3.95853 309.082 2.61307 309.217C1.66494 309.316 0.68971 310.027 0.247247 310.927C-0.01462 311.477 -0.077829 312.323 0.102768 312.881Z" fill="white"/>
<path d="M0.102759 158.28C0.554211 159.639 2.05303 160.558 3.37127 160.279C4.44572 160.054 5.44794 159.054 5.67367 157.983C6.04386 156.245 4.39155 154.435 2.61283 154.615C1.66478 154.714 0.689646 155.425 0.247223 156.326C-0.0146185 156.875 -0.0778218 157.722 0.102759 158.28Z" fill="white"/>
<path d="M175.701 415.951C176.152 417.311 177.651 418.229 178.969 417.95C180.044 417.725 181.046 416.725 181.272 415.654C181.642 413.916 179.99 412.106 178.211 412.286C177.263 412.385 176.288 413.097 175.845 413.997C175.584 414.546 175.52 415.393 175.701 415.951Z" fill="white"/>
<path d="M175.701 312.883C176.152 314.242 177.651 315.161 178.969 314.881C180.044 314.656 181.046 313.657 181.272 312.585C181.642 310.848 179.99 309.038 178.211 309.218C177.263 309.317 176.288 310.028 175.845 310.929C175.584 311.478 175.52 312.324 175.701 312.883Z" fill="white"/>
<path d="M175.701 158.28C176.152 159.639 177.651 160.558 178.969 160.279C180.044 160.054 181.046 159.054 181.272 157.983C181.642 156.245 179.99 154.435 178.211 154.615C177.263 154.714 176.288 155.425 175.845 156.326C175.584 156.875 175.52 157.722 175.701 158.28Z" fill="white"/>
<path d="M219.6 312.881C219.917 313.826 220.874 314.682 221.84 314.88C223.7 315.267 225.56 313.412 225.172 311.558C224.883 310.162 223.456 309.082 222.111 309.217C221.163 309.316 220.187 310.027 219.745 310.927C219.483 311.477 219.42 312.323 219.6 312.881Z" fill="white"/>
<path d="M219.6 364.415C219.917 365.361 220.874 366.216 221.84 366.414C223.7 366.801 225.56 364.947 225.172 363.092C224.883 361.696 223.456 360.616 222.111 360.751C221.163 360.85 220.187 361.561 219.745 362.462C219.483 363.011 219.42 363.857 219.6 364.415Z" fill="white"/>
<path d="M219.6 209.813C219.917 210.758 220.874 211.613 221.84 211.811C223.7 212.198 225.56 210.344 225.172 208.489C224.883 207.094 223.456 206.013 222.111 206.148C221.163 206.247 220.187 206.959 219.745 207.859C219.483 208.408 219.42 209.254 219.6 209.813Z" fill="white"/>
<path d="M87.9019 106.744C88.2179 107.69 89.1751 108.545 90.1413 108.743C92.0014 109.13 93.8616 107.275 93.4733 105.421C93.1843 104.025 91.7576 102.945 90.4122 103.08C89.464 103.179 88.4888 103.89 88.0463 104.791C87.7845 105.34 87.7213 106.186 87.9019 106.744Z" fill="white"/>
<path d="M87.9019 55.2099C88.2179 56.1552 89.1751 57.0105 90.1413 57.2086C92.0014 57.5957 93.8616 55.7411 93.4733 53.8864C93.1843 52.491 91.7576 51.4106 90.4122 51.5456C89.464 51.6447 88.4888 52.3559 88.0463 53.2562C87.7845 53.8054 87.7213 54.6517 87.9019 55.2099Z" fill="white"/>
<path d="M131.801 106.746C132.253 108.105 133.752 109.024 135.07 108.744C136.144 108.519 137.147 107.52 137.372 106.448C137.742 104.711 136.09 102.901 134.311 103.081C133.363 103.18 132.388 103.891 131.946 104.792C131.684 105.341 131.621 106.187 131.801 106.746Z" fill="white"/>
<path d="M131.801 55.2113C132.253 56.5709 133.752 57.4893 135.07 57.2102C136.144 56.9851 137.147 55.9856 137.372 54.9142C137.742 53.1764 136.09 51.3666 134.311 51.5466C133.363 51.6457 132.388 52.357 131.946 53.2574C131.684 53.8067 131.621 54.653 131.801 55.2113Z" fill="white"/>
<path d="M131.801 3.67699C132.253 5.0366 133.752 5.95501 135.07 5.67589C136.144 5.45079 137.147 4.45134 137.372 3.37986C137.742 1.64208 136.09 -0.167736 134.311 0.0123455C133.363 0.11139 132.388 0.822709 131.946 1.72311C131.684 2.27236 131.621 3.11874 131.801 3.67699Z" fill="white"/>
<path d="M87.9018 3.67699C88.3533 5.0366 89.8521 5.95501 91.1704 5.67589C92.2448 5.45079 93.247 4.45134 93.4728 3.37986C93.8429 1.64208 92.1906 -0.167736 90.4119 0.0123455C89.4639 0.11139 88.4887 0.822709 88.0463 1.72311C87.7845 2.27236 87.7213 3.11874 87.9018 3.67699Z" fill="white"/>
<path d="M44.0023 106.744C44.3184 107.69 45.2755 108.545 46.2417 108.743C48.1019 109.13 49.962 107.275 49.5737 105.421C49.2848 104.025 47.8581 102.945 46.5126 103.08C45.5645 103.179 44.5892 103.89 44.1468 104.791C43.8849 105.34 43.8217 106.186 44.0023 106.744Z" fill="white"/>
<path d="M44.0023 55.2099C44.3184 56.1552 45.2755 57.0105 46.2417 57.2086C48.1019 57.5957 49.962 55.7411 49.5737 53.8864C49.2848 52.491 47.8581 51.4106 46.5126 51.5456C45.5645 51.6447 44.5892 52.3559 44.1468 53.2562C43.8849 53.8054 43.8217 54.6517 44.0023 55.2099Z" fill="white"/>
<path d="M44.0023 3.67699C44.4537 5.0366 45.9526 5.95501 47.2708 5.67589C48.3453 5.45079 49.3475 4.45134 49.5732 3.37986C49.9434 1.64208 48.2911 -0.167736 46.5124 0.0123455C45.5643 0.11139 44.5892 0.822709 44.1468 1.72311C43.8849 2.27236 43.8217 3.11874 44.0023 3.67699Z" fill="white"/>
<path d="M0.102768 106.744C0.418814 107.69 1.37598 108.545 2.34218 108.743C4.20233 109.13 6.06249 107.275 5.6742 105.421C5.38525 104.025 3.95853 102.945 2.61307 103.08C1.66494 103.179 0.68971 103.89 0.247247 104.791C-0.01462 105.34 -0.077829 106.186 0.102768 106.744Z" fill="white"/>
<path d="M0.102768 55.2099C0.418814 56.1552 1.37598 57.0105 2.34218 57.2086C4.20233 57.5957 6.06249 55.7411 5.6742 53.8864C5.38525 52.491 3.95853 51.4106 2.61307 51.5456C1.66494 51.6447 0.68971 52.3559 0.247247 53.2562C-0.01462 53.8054 -0.077829 54.6517 0.102768 55.2099Z" fill="white"/>
<path d="M0.102759 3.67699C0.554211 5.0366 2.05303 5.95501 3.37127 5.67589C4.44572 5.45079 5.44794 4.45134 5.67367 3.37986C6.04386 1.64208 4.39155 -0.167735 2.61283 0.0123459C1.66478 0.11139 0.689646 0.82271 0.247223 1.72311C-0.0146185 2.27236 -0.0778218 3.11874 0.102759 3.67699Z" fill="white"/>
<path d="M175.701 106.746C176.152 108.105 177.651 109.024 178.969 108.744C180.044 108.519 181.046 107.52 181.272 106.448C181.642 104.711 179.99 102.901 178.211 103.081C177.263 103.18 176.288 103.891 175.845 104.792C175.584 105.341 175.52 106.187 175.701 106.746Z" fill="white"/>
<path d="M175.701 55.2113C176.152 56.5709 177.651 57.4893 178.969 57.2102C180.044 56.9851 181.046 55.9856 181.272 54.9142C181.642 53.1764 179.99 51.3666 178.211 51.5466C177.263 51.6457 176.288 52.357 175.845 53.2574C175.584 53.8067 175.52 54.653 175.701 55.2113Z" fill="white"/>
<path d="M175.701 3.67699C176.152 5.0366 177.651 5.95501 178.969 5.67589C180.044 5.45079 181.046 4.45134 181.272 3.37986C181.642 1.64208 179.99 -0.167736 178.211 0.0123455C177.263 0.11139 176.288 0.822709 175.845 1.72311C175.584 2.27236 175.52 3.11874 175.701 3.67699Z" fill="white"/>
<path d="M219.6 55.2099C219.917 56.1552 220.874 57.0105 221.84 57.2086C223.7 57.5957 225.56 55.7411 225.172 53.8864C224.883 52.491 223.456 51.4106 222.111 51.5456C221.163 51.6447 220.187 52.3559 219.745 53.2562C219.483 53.8054 219.42 54.6517 219.6 55.2099Z" fill="white"/>
<path d="M219.6 106.744C219.917 107.69 220.874 108.545 221.84 108.743C223.7 109.13 225.56 107.275 225.172 105.421C224.883 104.025 223.456 102.945 222.111 103.08C221.163 103.179 220.187 103.89 219.745 104.791C219.483 105.34 219.42 106.186 219.6 106.744Z" fill="white"/>
<path d="M219.6 3.67559C219.917 4.62091 220.874 5.4762 221.84 5.67427C223.7 6.0614 225.56 4.20677 225.172 2.35213C224.883 0.95666 223.456 -0.123708 222.111 0.0113379C221.163 0.110372 220.187 0.821614 219.745 1.72192C219.483 2.27111 219.42 3.1174 219.6 3.67559Z" fill="white"/>
</svg>
