<svg width="24" height="19" viewBox="0 0 24 19" fill="none" xmlns="http://www.w3.org/2000/svg">
<path d="M3.95455 0.068826C4.14473 0.0679207 4.33491 0.0670153 4.53086 0.0660825C5.16126 0.0635163 5.79165 0.0629949 6.42205 0.0627055C6.85968 0.0618396 7.2973 0.0609328 7.73492 0.0599866C8.65314 0.0583708 9.57135 0.0578733 10.4896 0.0580328C11.6661 0.0580602 12.8426 0.0543817 14.0192 0.0497376C14.9234 0.0467401 15.8276 0.0461936 16.7318 0.0463362C17.1656 0.046018 17.5993 0.0448252 18.0331 0.0427423C18.64 0.0401008 19.2468 0.0408762 19.8538 0.0425011C20.1991 0.042117 20.5445 0.0417328 20.9003 0.0413371C21.7358 0.105005 22.1871 0.180035 22.8677 0.647119C23.4714 1.54064 23.5414 1.96729 23.6019 3.02268C23.6255 3.29685 23.6491 3.57102 23.6734 3.85349C23.2524 5.21268 22.1557 5.61851 20.9552 6.30803C20.4219 6.63848 19.8894 6.97023 19.3576 7.30311C18.7919 7.65132 18.2259 7.99916 17.6597 8.34663C17.3764 8.52089 17.0931 8.69516 16.8011 8.87471C16.2512 9.21297 15.7003 9.54986 15.1484 9.88519C14.6773 10.1781 14.212 10.4804 13.756 10.7958C13.5683 10.924 13.3805 11.0523 13.1871 11.1845C13.0295 11.2977 12.8719 11.411 12.7096 11.5277C12.2127 11.6994 12.2127 11.6994 11.5584 11.5152C10.8166 11.1452 10.1168 10.7454 9.41343 10.3084C9.14119 10.1401 8.86896 9.97186 8.58848 9.79851C8.00428 9.43306 7.42053 9.06691 6.8372 8.70011C4.95131 7.51413 4.95131 7.51413 3.00807 6.42386C0.606336 5.12931 0.606336 5.12931 0.19812 3.86297C0.140293 2.61671 0.159704 1.8108 0.996389 0.837711C1.99821 0.0164813 2.66315 0.0726729 3.95455 0.068826ZM2.92376 2.53409C2.92376 2.80096 2.92376 3.06783 2.92376 3.34279C3.50915 3.81686 3.50915 3.81686 4.28124 4.2589C4.56721 4.43264 4.85318 4.60639 5.14781 4.78539C5.60212 5.05539 5.60212 5.05539 6.06561 5.33085C6.36003 5.50876 6.65445 5.68668 6.95779 5.86998C7.53401 6.21804 8.1117 6.56376 8.69093 6.90692C9.17978 7.20366 9.66245 7.51093 10.1338 7.83408C10.3211 7.96222 10.5085 8.09036 10.7015 8.22237C10.8577 8.33518 11.0139 8.44798 11.1748 8.5642C11.6922 8.79609 11.6922 8.79609 12.332 8.54051C12.997 8.2124 13.6375 7.86991 14.2745 7.4916C14.5056 7.35468 14.7366 7.21777 14.9746 7.07671C15.2127 6.93424 15.4508 6.79177 15.6961 6.64499C15.9299 6.50669 16.1637 6.36839 16.4047 6.22589C17.1052 5.80906 17.8015 5.38614 18.4964 4.96019C18.735 4.81581 18.9736 4.67143 19.2194 4.52267C19.4443 4.38211 19.6692 4.24155 19.9008 4.09674C20.2053 3.90844 20.2053 3.90844 20.5158 3.71634C20.6608 3.59307 20.8058 3.4698 20.9552 3.34279C20.9552 3.07592 20.9552 2.80905 20.9552 2.53409C15.0048 2.53409 9.05446 2.53409 2.92376 2.53409Z" fill="#2C2A4A"/>
<path d="M0.464979 7.1167C1.31285 7.44204 2.10747 7.79223 2.92382 8.19497C2.92382 10.7747 2.92382 13.3545 2.92382 16.0124C8.87421 16.0124 14.8246 16.0124 20.9553 16.0124C20.9553 13.5216 20.9553 11.0308 20.9553 8.46453C22.8677 7.1167 22.8677 7.1167 23.4141 7.1167C23.4412 8.51739 23.461 9.91793 23.4742 11.3188C23.4797 11.7952 23.4871 12.2716 23.4966 12.748C23.5098 13.4332 23.516 14.1182 23.5209 14.8036C23.5265 15.0162 23.5321 15.2288 23.5379 15.4478C23.5384 16.4228 23.5074 16.9711 22.8952 17.7559C21.8616 18.4998 21.203 18.4739 19.9245 18.4777C19.7343 18.4786 19.5441 18.4795 19.3482 18.4804C18.7178 18.483 18.0874 18.4835 17.457 18.4838C17.0194 18.4847 16.5818 18.4856 16.1441 18.4865C15.2259 18.4881 14.3077 18.4886 13.3895 18.4885C12.2129 18.4884 11.0364 18.4921 9.85987 18.4968C8.95565 18.4998 8.05144 18.5003 7.14721 18.5002C6.71347 18.5005 6.27972 18.5017 5.84598 18.5038C5.23906 18.5064 4.63223 18.5056 4.02531 18.504C3.67993 18.5044 3.33456 18.5048 2.97872 18.5052C2.1433 18.4415 1.692 18.3665 1.01139 17.8994C0.312582 16.8651 0.395841 16.0271 0.411619 14.8299C0.412392 14.6097 0.413165 14.3894 0.413962 14.1625C0.41702 13.4593 0.423878 12.7563 0.430829 12.0531C0.433569 11.5763 0.436063 11.0995 0.438299 10.6227C0.444323 9.45396 0.453754 8.28535 0.464979 7.1167Z" fill="#2C2A4A"/>
</svg>
