<svg width="52" height="52" viewBox="0 0 52 52" fill="none" xmlns="http://www.w3.org/2000/svg">
<path d="M39.2578 4.5995C39.4961 4.73419 39.7344 4.86887 39.9799 5.00764C45.2895 8.23567 49.1146 13.8352 50.6316 19.9209C52.1673 26.6328 51.4605 33.6451 47.9726 39.5921C47.3268 40.6264 46.5645 41.554 45.782 42.4804C45.6138 42.707 45.4456 42.9336 45.2723 43.1671C45.0461 43.44 45.0461 43.44 44.8154 43.7184C44.656 43.7184 44.4965 43.7184 44.3322 43.7184C44.3322 43.8818 44.3322 44.0452 44.3322 44.2136C43.8882 44.6201 43.4464 44.991 42.973 45.3587C42.8315 45.4687 42.6901 45.5787 42.5443 45.6921C37.9672 49.178 32.2242 51.5395 26.4512 51.3936C26.3316 50.7808 26.3316 50.7808 26.2096 50.1557C26.7751 49.866 27.2904 49.8274 27.9132 49.761C34.3443 49.0677 40.6074 46.5151 44.8958 41.3499C48.6751 36.5303 50.3852 30.5145 49.8409 24.3484C49.1784 18.2328 46.564 12.3503 41.9158 8.31332C36.2118 3.75405 29.6526 1.88585 22.4363 2.68916C16.3756 3.66837 10.883 7.39869 7.14221 12.2921C3.19758 17.9582 1.92311 24.2458 3.02027 31.073C3.75476 35.2317 5.56103 39.0968 8.32867 42.2329C8.48254 42.4077 8.63641 42.5826 8.79495 42.7628C11.8239 46.0285 15.8886 47.8365 19.9271 49.4129C19.9271 48.1056 19.9271 46.7984 19.9271 45.4515C19.5683 45.4668 19.2095 45.4821 18.8398 45.4979C17.1423 45.493 15.7739 45.0635 14.4903 43.877C13.5697 42.8452 12.7865 41.6569 12.1372 40.4291C11.4582 39.1501 10.8541 38.7605 9.5274 38.2569C9.05357 38.0239 9.05357 38.0239 8.67602 37.343C8.62369 37.0672 8.62369 37.0672 8.5703 36.7859C8.91765 36.2753 8.91765 36.2753 9.53684 35.7956C11.3489 35.621 13.1288 36.4044 14.5092 37.5509C15.2604 38.2434 15.9974 38.9469 16.7094 39.6815C17.3875 40.3406 17.8637 40.5741 18.7793 40.5926C19.6393 40.5601 19.6393 40.5601 20.1687 40.2522C20.388 39.7289 20.388 39.7289 20.5614 39.1225C20.6558 38.8157 20.6558 38.8157 20.7521 38.5026C20.8221 38.2656 20.8221 38.2656 20.8936 38.0239C20.5847 38.0034 20.2757 37.983 19.9573 37.962C17.3265 37.6456 15.1636 36.3387 13.4464 34.2772C11.8213 31.9427 11.0908 29.2374 11.2283 26.3872C11.3384 25.7198 11.4587 25.0901 11.6209 24.4375C11.6624 24.2662 11.7039 24.0949 11.7466 23.9184C12.0902 22.6056 12.613 21.5376 13.3851 20.4248C13.4707 20.2681 13.5564 20.1114 13.6446 19.9499C13.5649 19.7048 13.4851 19.4597 13.403 19.2072C13.3675 18.6044 13.3496 18.0005 13.3426 17.3967C13.3363 17.0759 13.3301 16.7552 13.3237 16.4247C13.4105 15.4048 13.641 14.5067 14.3695 13.7603C16.3541 13.7767 18.4138 14.1976 20.0932 15.3077C21.0834 15.8437 21.5108 15.7489 22.5851 15.4934C23.8539 15.273 25.078 15.1991 26.3606 15.1994C26.5509 15.1981 26.7413 15.1969 26.9373 15.1956C28.1074 15.2012 29.1694 15.3306 30.3174 15.5862C31.4713 15.8011 32.0147 15.7232 33.0056 15.0756C33.1968 14.9361 33.3881 14.7966 33.5851 14.6529C34.9476 13.7479 36.6788 13.3787 38.2913 13.5127C39.1715 15.2773 39.4592 17.1026 39.0464 19.0524C38.8422 20.4593 39.6248 21.4674 40.2905 22.6454C41.5648 24.9998 41.5895 28.3636 40.9191 30.9367C40.0191 33.4887 38.5508 35.4801 36.2374 36.8323C34.6884 37.5715 32.942 37.8838 31.2839 38.2714C31.4063 38.4792 31.4063 38.4792 31.5312 38.6912C33.0518 41.4921 33.4142 45.0459 32.7337 48.175C32.335 48.0933 31.9363 48.0116 31.5256 47.9274C31.522 47.7665 31.5185 47.6057 31.5149 47.44C31.4967 46.6997 31.4734 45.9596 31.45 45.2194C31.4446 44.9664 31.4391 44.7135 31.4335 44.4529C31.3561 42.1943 30.8562 40.4259 29.7548 38.4755C29.5495 37.9042 29.6732 37.6073 29.8341 37.0335C30.1201 36.9764 30.406 36.9193 30.7006 36.8604C33.9641 36.1828 36.5216 35.504 38.5329 32.5769C39.188 31.396 39.6348 30.2247 39.7411 28.8631C39.7564 28.6707 39.7716 28.4782 39.7874 28.2799C39.8926 25.8696 39.3322 23.6669 37.9591 21.6985C37.1042 20.3596 37.3674 19.3077 37.6655 17.7952C37.8435 16.776 37.7629 16.005 37.5664 14.9982C35.9394 15.3037 34.7025 15.6518 33.3831 16.7004C32.5574 17.281 32.1828 17.4851 31.1725 17.4209C30.56 17.2781 29.9499 17.1242 29.3424 16.9605C26.9221 16.3241 24.3964 16.6413 22.0225 17.3358C20.9054 17.5751 20.2154 17.1517 19.2324 16.623C17.7761 15.8649 16.4816 15.4461 14.8528 15.2458C14.7799 17.5207 14.7799 17.5207 15.0642 19.7643C15.1033 20.9651 14.6978 21.5363 14.0411 22.5032C13.1165 24.055 12.7838 25.5076 12.7989 27.3157C12.801 27.6069 12.801 27.6069 12.8031 27.9041C12.8754 30.3381 13.6966 32.3751 15.3493 34.1418C17.2081 35.7864 19.5589 36.4482 21.9206 36.9271C22.3435 37.0335 22.3435 37.0335 22.5851 37.2811C22.4934 38.2957 22.4176 38.9002 21.8602 39.757C21.7954 40.0021 21.7306 40.2472 21.6639 40.4997C21.3769 41.2425 21.3769 41.2425 20.8634 41.6913C19.5039 42.2666 18.2418 42.4502 16.8538 41.8605C15.9203 41.2332 15.1744 40.3988 14.4207 39.56C13.5881 38.6157 13.5881 38.6157 12.4365 38.2714C12.9963 39.0996 13.5613 39.924 14.1279 40.7473C14.2547 40.9356 14.3814 41.1239 14.5121 41.3179C15.3645 42.5459 16.1356 43.5607 17.6675 43.8315C18.564 43.9239 19.4408 43.9761 20.3415 43.9389C20.8936 43.966 20.8936 43.966 21.3769 44.4611C21.4254 45.147 21.4441 45.8028 21.4373 46.4883C21.4392 46.6723 21.4411 46.8563 21.443 47.0458C21.4334 49.8502 21.4334 49.8502 20.652 50.6508C16.24 50.9673 11.244 47.0834 8.06721 44.2619C4.82167 41.1241 2.9376 36.9188 1.80455 32.5769C1.74786 32.3599 1.69117 32.1429 1.63276 31.9193C0.165078 25.7295 1.31737 19.1386 4.39739 13.6626C5.32685 12.1013 6.43891 10.6854 7.60377 9.30367C7.83738 9.02601 7.83738 9.02601 8.07571 8.74273C16.2158 -0.178145 29.2069 -1.15399 39.2578 4.5995Z" fill="white" stroke="white"/>
</svg>
