<svg width="21" height="24" viewBox="0 0 21 24" fill="none" xmlns="http://www.w3.org/2000/svg">
<path d="M10.136 0C5.98126 0 2.63602 3.0585 2.63602 6.85714V8C1.26969 8 0.136021 9.0365 0.136021 10.2857V21.7143C0.136021 22.9635 1.26969 24 2.63602 24H17.636C19.0023 24 20.136 22.9635 20.136 21.7143V10.2857C20.136 9.0365 19.0023 8 17.636 8V6.85714C17.636 3.0585 14.2908 0 10.136 0ZM10.136 2.28571C12.9813 2.28571 15.136 4.25578 15.136 6.85714V8H5.13602V6.85714C5.13602 4.25578 7.29078 2.28571 10.136 2.28571ZM2.63602 10.2857H17.636V21.7143H2.63602V10.2857ZM10.136 13.7143C8.76102 13.7143 7.63602 14.7429 7.63602 16C7.63602 17.2571 8.76102 18.2857 10.136 18.2857C11.511 18.2857 12.636 17.2571 12.636 16C12.636 14.7429 11.511 13.7143 10.136 13.7143Z" fill="#2C2A4A"/>
</svg>
