<svg id="visual" viewBox="0 0 960 540" width="960" height="540" xmlns="http://www.w3.org/2000/svg" xmlns:xlink="http://www.w3.org/1999/xlink" version="1.1"><path d="M0 380L22.8 370.3C45.7 360.7 91.3 341.3 137 333.3C182.7 325.3 228.3 328.7 274 334.8C319.7 341 365.3 350 411.2 351.5C457 353 503 347 548.8 344.8C594.7 342.7 640.3 344.3 686 351.3C731.7 358.3 777.3 370.7 823 372.8C868.7 375 914.3 367 937.2 363L960 359L960 541L937.2 541C914.3 541 868.7 541 823 541C777.3 541 731.7 541 686 541C640.3 541 594.7 541 548.8 541C503 541 457 541 411.2 541C365.3 541 319.7 541 274 541C228.3 541 182.7 541 137 541C91.3 541 45.7 541 22.8 541L0 541Z" fill="#907ad6"></path><path d="M0 355L22.8 357.5C45.7 360 91.3 365 137 368.7C182.7 372.3 228.3 374.7 274 383.5C319.7 392.3 365.3 407.7 411.2 403.8C457 400 503 377 548.8 372.5C594.7 368 640.3 382 686 386C731.7 390 777.3 384 823 388.7C868.7 393.3 914.3 408.7 937.2 416.3L960 424L960 541L937.2 541C914.3 541 868.7 541 823 541C777.3 541 731.7 541 686 541C640.3 541 594.7 541 548.8 541C503 541 457 541 411.2 541C365.3 541 319.7 541 274 541C228.3 541 182.7 541 137 541C91.3 541 45.7 541 22.8 541L0 541Z" fill="#6561a8"></path><path d="M0 396L22.8 399.2C45.7 402.3 91.3 408.7 137 411.2C182.7 413.7 228.3 412.3 274 412.2C319.7 412 365.3 413 411.2 419C457 425 503 436 548.8 439C594.7 442 640.3 437 686 429C731.7 421 777.3 410 823 412.5C868.7 415 914.3 431 937.2 439L960 447L960 541L937.2 541C914.3 541 868.7 541 823 541C777.3 541 731.7 541 686 541C640.3 541 594.7 541 548.8 541C503 541 457 541 411.2 541C365.3 541 319.7 541 274 541C228.3 541 182.7 541 137 541C91.3 541 45.7 541 22.8 541L0 541Z" fill="#4f518c"></path><path d="M0 483L22.8 478.2C45.7 473.3 91.3 463.7 137 455.7C182.7 447.7 228.3 441.3 274 439.2C319.7 437 365.3 439 411.2 439.8C457 440.7 503 440.3 548.8 442.7C594.7 445 640.3 450 686 456.2C731.7 462.3 777.3 469.7 823 474.3C868.7 479 914.3 481 937.2 482L960 483L960 541L937.2 541C914.3 541 868.7 541 823 541C777.3 541 731.7 541 686 541C640.3 541 594.7 541 548.8 541C503 541 457 541 411.2 541C365.3 541 319.7 541 274 541C228.3 541 182.7 541 137 541C91.3 541 45.7 541 22.8 541L0 541Z" fill="#6561a8"></path><path d="M0 499L22.8 495.5C45.7 492 91.3 485 137 481C182.7 477 228.3 476 274 478C319.7 480 365.3 485 411.2 490.2C457 495.3 503 500.7 548.8 503.3C594.7 506 640.3 506 686 503.3C731.7 500.7 777.3 495.3 823 494.5C868.7 493.7 914.3 497.3 937.2 499.2L960 501L960 541L937.2 541C914.3 541 868.7 541 823 541C777.3 541 731.7 541 686 541C640.3 541 594.7 541 548.8 541C503 541 457 541 411.2 541C365.3 541 319.7 541 274 541C228.3 541 182.7 541 137 541C91.3 541 45.7 541 22.8 541L0 541Z" fill="#907ad6"></path></svg>